<?xml version="1.0" encoding="utf-8"?>
<!-- Generator: Adobe Illustrator 16.0.0, SVG Export Plug-In . SVG Version: 6.00 Build 0)  -->
<!DOCTYPE svg PUBLIC "-//W3C//DTD SVG 1.1//EN" "http://www.w3.org/Graphics/SVG/1.1/DTD/svg11.dtd">
<svg version="1.1" id="Layer_1" xmlns="http://www.w3.org/2000/svg" xmlns:xlink="http://www.w3.org/1999/xlink" x="0px" y="0px"
	 width="285.334px" height="70px" viewBox="0 0 285.334 70" enable-background="new 0 0 285.334 70" xml:space="preserve">
<g>
	<g>
		<path fill="#00A65D" d="M69.537,34.901c0,18.934-15.342,34.278-34.271,34.278C16.347,69.18,1,53.835,1,34.901
			C1,15.984,16.347,0.635,35.266,0.635C54.195,0.635,69.537,15.984,69.537,34.901z"/>
		<path fill="#FFFFFF" d="M14.712,32.884l1.068-3.896h6.726l1.063,3.896h6.023l-6.023-18.532h-6.727l0.708,1.193l-6.017,17.339
			H14.712z M19.201,18.839h0.591l2.364,8.026h-5.785L19.201,18.839z"/>
		<path fill="#FFFFFF" d="M36.071,32.884c3.895,1.295,8.381-1.896,8.381-1.896v-3.288c0,0-4.021,4.359-7.196,1.648
			c-3.188-2.714-2.01-9.445,0-11.557c1.994-2.129,5.889-1.297,7.307,1.639c0,0,0-2.936,0-3.768c0-0.945-10.369-6.251-14.281,4.48
			C29.721,21.702,28.645,30.399,36.071,32.884z"/>
		<polygon fill="#FFFFFF" points="52.591,13.994 47.281,13.994 47.281,32.884 52.591,32.769 		"/>
		<path fill="#FFFFFF" d="M3.674,42.795c3.525,14.178,16.33,24.678,31.592,24.678c15.276,0,28.097-10.519,31.611-24.715
			l-0.008,0.048c-7.503,0.58-14.193,0.557-17.706-3.903c-3.54-4.491-18.171,2.48-18.526,2.832
			c-0.355,0.348-7.068,3.528-12.382,1.651c-5.979-2.188-13.444-0.857-14.594-0.628L3.674,42.795z"/>
		<path fill="#00A65D" d="M59.928,53.597c-1.406,1.855-3,3.523-4.776,5.021l-0.04-0.025c-10.607-7.672-15.38-4.483-18.573-1.771
			c-3.177,2.725-9.907,3.068-12.849,2.133c-3.083-0.984-9.166-1.144-9.166-1.144l-0.035,0.022c-0.875-0.806-1.696-1.65-2.476-2.532
			l0.062-0.007c0,0,5.359-0.236,11.494,0.347c6.133,0.601,4.832,0.838,10.732-3.063c5.895-3.884,6.253-0.162,13.806-0.822
			c8.541-0.744,11.772,1.817,11.772,1.817L59.928,53.597z"/>
		<path fill="#00A65D" d="M5.992,44.788c0,0,4.822-1.047,12.626,1.422c7.78,2.484,12.968-0.586,21.229-4.476
			c5.187-2.722,10.261-1.542,7.535,2.352c-0.929,2.367,3.197,2.124,3.906,1.999c0.712-0.112,10.257-1.587,12.671,0.405l0.005,0.009
			c-0.493,1.202-1.04,2.357-1.677,3.463l-0.048-0.021c0,0-8.354-2.909-14.134-0.909c-4.483,1.412-3.441-2.505-3.429-2.822
			c0.018-0.206-1.107-1.468-4.593,0c-3.075,1.303-9.211,4.839-9.211,4.839s-4.72,4.723-13.198-0.473
			c-2.839-1.72-6.183-3.427-10.421-2.604H7.228c-0.481-1.021-0.912-2.076-1.263-3.162L5.992,44.788z"/>
		<path fill="#00A65D" d="M51.154,61.456c-4.639,2.785-10.085,4.385-15.889,4.385c-2.313,0-4.578-0.242-6.75-0.747l-0.01,0.024
			c0,0,6.621-4.754,8.504-6.164c1.893-1.41,9.175-4.217,14.117,2.481L51.154,61.456z"/>
	</g>
</g>
<g>
	<g>
		<path fill="#FFFFFF" d="M98.298,30.072h-4.523l-0.626,2.365h-4.063l4.841-14.315h4.344l4.843,14.315H98.94L98.298,30.072z
			 M97.472,26.978l-1.425-5.148l-1.405,5.148H97.472z"/>
		<path fill="#FFFFFF" d="M113.966,18.122v14.315h-3.345v-1.534c-0.474,0.648-0.9,1.088-1.288,1.316
			c-0.516,0.302-1.089,0.447-1.722,0.447c-1.27,0-2.241-0.535-2.911-1.608c-0.673-1.071-1.007-2.379-1.007-3.919
			c0-1.712,0.368-3.034,1.107-3.942c0.741-0.907,1.687-1.368,2.827-1.368c0.556,0,1.063,0.107,1.517,0.313
			c0.454,0.209,0.857,0.519,1.211,0.94v-4.96H113.966z M110.378,27.221c0-0.813-0.153-1.422-0.46-1.818
			c-0.315-0.4-0.707-0.604-1.18-0.604c-0.417,0-0.764,0.194-1.047,0.579c-0.283,0.379-0.42,1.028-0.42,1.931
			c0,0.846,0.144,1.469,0.431,1.86c0.293,0.397,0.646,0.59,1.076,0.59c0.459,0,0.842-0.193,1.146-0.594
			C110.226,28.762,110.378,28.119,110.378,27.221z"/>
		<path fill="#FFFFFF" d="M115.09,22.064h3.723l1.813,6.571l1.881-6.571h3.604l-3.963,10.373h-3.175L115.09,22.064z"/>
		<path fill="#FFFFFF" d="M130.404,25.428l-3.419-0.398c0.126-0.669,0.31-1.19,0.559-1.572c0.235-0.38,0.593-0.714,1.047-0.993
			c0.327-0.198,0.778-0.355,1.354-0.465c0.574-0.112,1.195-0.17,1.864-0.17c1.071,0,1.931,0.07,2.586,0.203
			c0.65,0.13,1.188,0.412,1.622,0.836c0.307,0.293,0.547,0.708,0.727,1.245c0.17,0.536,0.26,1.048,0.26,1.536v4.581
			c0,0.489,0.028,0.87,0.085,1.146c0.055,0.276,0.176,0.632,0.364,1.061h-3.36c-0.135-0.271-0.219-0.474-0.263-0.611
			c-0.039-0.141-0.084-0.361-0.122-0.658c-0.469,0.5-0.936,0.858-1.399,1.071c-0.632,0.288-1.366,0.428-2.204,0.428
			c-1.109,0-1.961-0.281-2.537-0.856c-0.578-0.57-0.865-1.277-0.865-2.119c0-0.787,0.204-1.435,0.625-1.942
			c0.417-0.51,1.182-0.887,2.303-1.128c1.341-0.302,2.211-0.515,2.611-0.637c0.397-0.118,0.816-0.275,1.266-0.475
			c0-0.48-0.094-0.828-0.273-1.024c-0.181-0.19-0.502-0.293-0.959-0.293c-0.584,0-1.024,0.105-1.317,0.314
			C130.725,24.668,130.542,24.977,130.404,25.428z M133.506,27.515c-0.495,0.193-1.007,0.368-1.539,0.521
			c-0.725,0.214-1.185,0.422-1.383,0.634c-0.195,0.212-0.298,0.458-0.298,0.731c0,0.314,0.102,0.566,0.292,0.766
			c0.203,0.197,0.487,0.297,0.869,0.297c0.397,0,0.766-0.108,1.112-0.322c0.341-0.213,0.585-0.478,0.727-0.789
			c0.148-0.307,0.22-0.709,0.22-1.203V27.515z"/>
		<path fill="#FFFFFF" d="M139.15,22.064h3.326v1.689c0.499-0.688,1.002-1.183,1.508-1.481c0.513-0.292,1.137-0.443,1.867-0.443
			c0.993,0,1.765,0.328,2.322,0.982c0.565,0.654,0.844,1.669,0.844,3.033v6.593h-3.597v-5.705c0-0.649-0.107-1.11-0.323-1.381
			c-0.217-0.272-0.522-0.408-0.915-0.408c-0.435,0-0.784,0.186-1.053,0.555c-0.269,0.36-0.405,1.015-0.405,1.957v4.982h-3.574
			V22.064z"/>
		<path fill="#FFFFFF" d="M158.111,28.375l3.406,0.431c-0.19,0.785-0.502,1.47-0.928,2.044c-0.429,0.572-0.971,1.023-1.637,1.344
			c-0.667,0.316-1.513,0.474-2.536,0.474c-0.995,0-1.815-0.097-2.474-0.304c-0.657-0.204-1.225-0.535-1.704-0.994
			c-0.473-0.459-0.848-0.998-1.113-1.615c-0.269-0.616-0.403-1.437-0.403-2.459c0-1.068,0.164-1.952,0.49-2.663
			c0.24-0.519,0.567-0.987,0.987-1.398c0.417-0.416,0.843-0.723,1.281-0.925c0.697-0.317,1.591-0.479,2.683-0.479
			c1.52,0,2.681,0.305,3.484,0.908c0.793,0.606,1.359,1.49,1.683,2.658l-3.37,0.496c-0.097-0.44-0.298-0.775-0.577-1
			c-0.274-0.227-0.651-0.339-1.116-0.339c-0.592,0-1.068,0.24-1.436,0.707c-0.366,0.477-0.553,1.189-0.553,2.141
			c0,0.854,0.186,1.497,0.548,1.942c0.36,0.442,0.827,0.663,1.385,0.663c0.474,0,0.865-0.136,1.187-0.403
			C157.717,29.335,157.955,28.923,158.111,28.375z"/>
		<path fill="#FFFFFF" d="M173.518,28.238h-7.171c0.066,0.637,0.221,1.112,0.468,1.425c0.347,0.449,0.795,0.675,1.354,0.675
			c0.353,0,0.683-0.101,1.003-0.295c0.191-0.125,0.396-0.341,0.625-0.653l3.521,0.362c-0.539,1.039-1.189,1.788-1.95,2.238
			c-0.763,0.454-1.854,0.677-3.276,0.677c-1.239,0-2.213-0.189-2.921-0.577c-0.71-0.387-1.298-1.001-1.759-1.851
			c-0.471-0.837-0.701-1.831-0.701-2.971c0-1.619,0.463-2.932,1.403-3.935c0.934-0.998,2.222-1.505,3.869-1.505
			c1.338,0,2.395,0.23,3.162,0.677c0.778,0.449,1.362,1.101,1.771,1.954c0.401,0.851,0.601,1.957,0.601,3.33V28.238z
			 M169.883,26.335c-0.069-0.77-0.257-1.321-0.557-1.653c-0.304-0.33-0.701-0.497-1.191-0.497c-0.567,0-1.025,0.251-1.366,0.751
			c-0.215,0.313-0.354,0.778-0.412,1.399H169.883z"/>
		<path fill="#FFFFFF" d="M184.99,18.122v14.315h-3.35v-1.534c-0.469,0.648-0.894,1.088-1.284,1.316
			c-0.516,0.302-1.087,0.447-1.724,0.447c-1.272,0-2.24-0.535-2.913-1.608c-0.669-1.071-1.005-2.379-1.005-3.919
			c0-1.712,0.37-3.034,1.115-3.942c0.735-0.907,1.682-1.368,2.822-1.368c0.558,0,1.064,0.107,1.516,0.313
			c0.455,0.209,0.861,0.519,1.209,0.94v-4.96H184.99z M181.405,27.221c0-0.813-0.153-1.422-0.468-1.818
			c-0.308-0.4-0.705-0.604-1.181-0.604c-0.413,0-0.76,0.194-1.043,0.579c-0.28,0.379-0.422,1.028-0.422,1.931
			c0,0.846,0.146,1.469,0.435,1.86c0.29,0.397,0.65,0.59,1.079,0.59c0.457,0,0.836-0.193,1.143-0.594
			C181.252,28.762,181.405,28.119,181.405,27.221z"/>
		<path fill="#FFFFFF" d="M201.985,26.576l3.489,1.173c-0.23,1.088-0.598,1.995-1.105,2.724c-0.503,0.729-1.13,1.282-1.873,1.652
			c-0.746,0.368-1.7,0.559-2.854,0.559c-1.397,0-2.543-0.229-3.435-0.686c-0.884-0.449-1.65-1.246-2.297-2.382
			c-0.644-1.142-0.967-2.594-0.967-4.373c0-2.369,0.568-4.188,1.701-5.46c1.133-1.269,2.741-1.905,4.813-1.905
			c1.624,0,2.899,0.362,3.826,1.094c0.926,0.73,1.617,1.848,2.068,3.359l-3.514,0.866c-0.124-0.434-0.25-0.753-0.386-0.956
			c-0.221-0.339-0.497-0.602-0.817-0.78c-0.321-0.187-0.681-0.274-1.08-0.274c-0.905,0-1.592,0.406-2.075,1.211
			c-0.36,0.596-0.548,1.536-0.548,2.816c0,1.589,0.22,2.676,0.652,3.261c0.435,0.594,1.044,0.883,1.83,0.883
			c0.759,0,1.33-0.23,1.727-0.711C201.527,28.17,201.813,27.485,201.985,26.576z"/>
		<path fill="#FFFFFF" d="M207.175,18.122h3.578v5.272c0.484-0.561,0.963-0.962,1.449-1.202c0.48-0.242,1.047-0.363,1.704-0.363
			c0.972,0,1.739,0.33,2.298,0.988c0.561,0.656,0.84,1.666,0.84,3.027v6.593h-3.593v-5.705c0-0.649-0.112-1.11-0.327-1.381
			c-0.218-0.272-0.52-0.408-0.91-0.408c-0.438,0-0.789,0.186-1.058,0.555c-0.268,0.36-0.403,1.015-0.403,1.957v4.982h-3.578V18.122z
			"/>
		<path fill="#FFFFFF" d="M229.541,28.238h-7.168c0.06,0.637,0.218,1.112,0.464,1.425c0.344,0.449,0.794,0.675,1.352,0.675
			c0.351,0,0.684-0.101,1.006-0.295c0.192-0.125,0.399-0.341,0.622-0.653l3.522,0.362c-0.54,1.039-1.189,1.788-1.954,2.238
			c-0.756,0.454-1.85,0.677-3.273,0.677c-1.235,0-2.211-0.189-2.918-0.577c-0.713-0.387-1.297-1.001-1.762-1.851
			c-0.466-0.837-0.703-1.831-0.703-2.971c0-1.619,0.467-2.932,1.403-3.935c0.934-0.998,2.227-1.505,3.873-1.505
			c1.336,0,2.39,0.23,3.166,0.677c0.772,0.449,1.365,1.101,1.764,1.954c0.404,0.851,0.606,1.957,0.606,3.33V28.238z M225.902,26.335
			c-0.071-0.77-0.257-1.321-0.557-1.653c-0.303-0.33-0.698-0.497-1.192-0.497c-0.569,0-1.022,0.251-1.36,0.751
			c-0.219,0.313-0.356,0.778-0.413,1.399H225.902z"/>
		<path fill="#FFFFFF" d="M231.21,22.064h3.336v1.517c0.486-0.634,0.971-1.082,1.459-1.347c0.491-0.268,1.085-0.405,1.777-0.405
			c0.745,0,1.335,0.148,1.769,0.441c0.432,0.293,0.791,0.728,1.069,1.311c0.554-0.682,1.073-1.141,1.532-1.382
			c0.462-0.248,1.031-0.37,1.71-0.37c0.999,0,1.781,0.33,2.345,0.993c0.563,0.658,0.842,1.691,0.842,3.103v6.513h-3.583v-5.91
			c0-0.469-0.083-0.817-0.249-1.044c-0.235-0.358-0.53-0.54-0.895-0.54c-0.421,0-0.755,0.173-1.015,0.511
			c-0.255,0.339-0.382,0.881-0.382,1.631v5.353h-3.591v-5.715c0-0.456-0.026-0.768-0.068-0.929c-0.08-0.259-0.213-0.47-0.397-0.626
			c-0.183-0.162-0.408-0.24-0.658-0.24c-0.418,0-0.752,0.173-1.015,0.518c-0.265,0.342-0.402,0.91-0.402,1.694v5.298h-3.584V22.064z
			"/>
		<path fill="#FFFFFF" d="M249.317,18.122h3.582v2.702h-3.582V18.122z M249.317,22.064h3.582v10.373h-3.582V22.064z"/>
		<path fill="#FFFFFF" d="M262.141,28.375l3.406,0.431c-0.188,0.785-0.496,1.47-0.93,2.044c-0.421,0.572-0.971,1.023-1.635,1.344
			c-0.671,0.316-1.514,0.474-2.541,0.474c-0.987,0-1.813-0.097-2.473-0.304c-0.655-0.204-1.22-0.535-1.7-0.994
			c-0.476-0.459-0.845-0.998-1.112-1.615c-0.271-0.616-0.404-1.437-0.404-2.459c0-1.068,0.163-1.952,0.49-2.663
			c0.238-0.519,0.568-0.987,0.987-1.398c0.415-0.416,0.84-0.723,1.276-0.925c0.697-0.317,1.591-0.479,2.685-0.479
			c1.521,0,2.687,0.305,3.484,0.908c0.801,0.606,1.361,1.49,1.685,2.658l-3.367,0.496c-0.106-0.44-0.299-0.775-0.577-1
			c-0.278-0.227-0.648-0.339-1.12-0.339c-0.597,0-1.074,0.24-1.433,0.707c-0.369,0.477-0.55,1.189-0.55,2.141
			c0,0.854,0.179,1.497,0.542,1.942c0.362,0.442,0.825,0.663,1.391,0.663c0.463,0,0.861-0.136,1.181-0.403
			C261.744,29.335,261.983,28.923,262.141,28.375z"/>
		<path fill="#FFFFFF" d="M270.443,25.428l-3.414-0.398c0.128-0.669,0.313-1.19,0.556-1.572c0.241-0.38,0.594-0.714,1.051-0.993
			c0.33-0.198,0.776-0.355,1.356-0.465c0.569-0.112,1.19-0.17,1.859-0.17c1.075,0,1.935,0.07,2.584,0.203
			c0.653,0.13,1.193,0.412,1.625,0.836c0.31,0.293,0.542,0.708,0.721,1.245c0.18,0.536,0.264,1.048,0.264,1.536v4.581
			c0,0.489,0.028,0.87,0.083,1.146c0.056,0.276,0.181,0.632,0.369,1.061h-3.361c-0.133-0.271-0.224-0.474-0.26-0.611
			c-0.048-0.141-0.083-0.361-0.124-0.658c-0.466,0.5-0.932,0.858-1.402,1.071c-0.624,0.288-1.367,0.428-2.206,0.428
			c-1.11,0-1.954-0.281-2.528-0.856c-0.58-0.57-0.868-1.277-0.868-2.119c0-0.787,0.208-1.435,0.626-1.942
			c0.409-0.51,1.18-0.887,2.302-1.128c1.34-0.302,2.211-0.515,2.609-0.637c0.397-0.118,0.82-0.275,1.264-0.475
			c0-0.48-0.087-0.828-0.27-1.024c-0.186-0.19-0.504-0.293-0.962-0.293c-0.585,0-1.025,0.105-1.316,0.314
			C270.773,24.668,270.59,24.977,270.443,25.428z M273.548,27.515c-0.494,0.193-1,0.368-1.534,0.521
			c-0.729,0.214-1.189,0.422-1.381,0.634c-0.204,0.212-0.307,0.458-0.307,0.731c0,0.314,0.103,0.566,0.302,0.766
			c0.192,0.197,0.484,0.297,0.863,0.297c0.399,0,0.775-0.108,1.119-0.322c0.333-0.213,0.582-0.478,0.721-0.789
			c0.148-0.307,0.217-0.709,0.217-1.203V27.515z"/>
		<path fill="#FFFFFF" d="M279.315,18.122h3.584v14.315h-3.584V18.122z"/>
	</g>
	<g>
		<path fill="#FFFFFF" d="M89.324,39.211h4.219v14.316h-4.219V39.211z"/>
		<path fill="#FFFFFF" d="M96.723,43.155h3.518v1.696c0.522-0.693,1.057-1.188,1.595-1.487c0.539-0.296,1.192-0.44,1.964-0.44
			c1.049,0,1.865,0.326,2.457,0.979c0.589,0.658,0.884,1.662,0.884,3.036v6.588h-3.793v-5.701c0-0.652-0.118-1.11-0.346-1.382
			c-0.227-0.274-0.552-0.405-0.966-0.405c-0.454,0-0.826,0.181-1.113,0.542c-0.281,0.367-0.423,1.027-0.423,1.968v4.979h-3.776
			V43.155z"/>
		<path fill="#FFFFFF" d="M120.188,39.211v14.316h-3.537v-1.531c-0.495,0.647-0.947,1.092-1.354,1.317
			c-0.542,0.298-1.148,0.447-1.819,0.447c-1.341,0-2.37-0.539-3.077-1.609c-0.706-1.076-1.061-2.382-1.061-3.915
			c0-1.717,0.391-3.032,1.175-3.942c0.781-0.916,1.774-1.37,2.979-1.37c0.588,0,1.121,0.102,1.604,0.313
			c0.477,0.206,0.901,0.523,1.273,0.938v-4.963H120.188z M116.402,48.316c0-0.817-0.165-1.426-0.492-1.821
			c-0.331-0.403-0.745-0.602-1.246-0.602c-0.44,0-0.805,0.191-1.102,0.574c-0.295,0.384-0.443,1.029-0.443,1.935
			c0,0.844,0.151,1.472,0.453,1.861c0.308,0.392,0.688,0.59,1.14,0.59c0.481,0,0.886-0.198,1.205-0.594
			C116.239,49.86,116.402,49.215,116.402,48.316z"/>
		<path fill="#FFFFFF" d="M133.285,53.527h-3.522v-1.677c-0.531,0.69-1.058,1.18-1.591,1.473c-0.541,0.292-1.195,0.438-1.972,0.438
			c-1.043,0-1.855-0.328-2.445-0.976c-0.592-0.658-0.891-1.665-0.891-3.022v-6.607h3.795v5.706c0,0.649,0.113,1.105,0.347,1.385
			c0.229,0.269,0.55,0.411,0.967,0.411c0.449,0,0.818-0.178,1.104-0.548c0.291-0.366,0.434-1.017,0.434-1.962v-4.992h3.775V53.527z"
			/>
		<path fill="#FFFFFF" d="M135.331,50.649l3.742-0.371c0.155,0.469,0.373,0.804,0.65,1.008c0.275,0.198,0.648,0.3,1.114,0.3
			c0.505,0,0.9-0.111,1.178-0.342c0.215-0.169,0.325-0.382,0.325-0.632c0-0.289-0.142-0.509-0.428-0.664
			c-0.206-0.113-0.745-0.251-1.624-0.413c-1.314-0.235-2.223-0.465-2.731-0.666c-0.509-0.202-0.939-0.551-1.287-1.039
			c-0.353-0.489-0.526-1.043-0.526-1.666c0-0.683,0.188-1.278,0.568-1.767c0.372-0.496,0.892-0.869,1.559-1.111
			c0.659-0.243,1.544-0.362,2.664-0.362c1.17,0,2.039,0.092,2.601,0.282c0.559,0.191,1.022,0.479,1.395,0.873
			c0.379,0.402,0.69,0.938,0.937,1.616l-3.581,0.375c-0.094-0.335-0.249-0.579-0.467-0.739c-0.292-0.21-0.651-0.312-1.072-0.312
			c-0.427,0-0.738,0.086-0.934,0.241c-0.193,0.161-0.289,0.354-0.289,0.581c0,0.257,0.122,0.441,0.371,0.576
			c0.246,0.13,0.783,0.244,1.61,0.351c1.256,0.148,2.192,0.357,2.802,0.624c0.613,0.264,1.081,0.648,1.406,1.144
			c0.322,0.494,0.488,1.039,0.488,1.632s-0.173,1.174-0.519,1.741c-0.347,0.564-0.881,1.015-1.62,1.352
			c-0.739,0.336-1.749,0.5-3.02,0.5c-1.802,0-3.08-0.27-3.846-0.809C136.033,52.413,135.546,51.643,135.331,50.649z"/>
		<path fill="#FFFFFF" d="M152.574,39.211v3.944h2.076v2.915h-2.076v3.671c0,0.444,0.043,0.738,0.122,0.877
			c0.12,0.223,0.34,0.333,0.649,0.333c0.278,0,0.664-0.087,1.167-0.256l0.276,2.745c-0.932,0.215-1.809,0.32-2.614,0.32
			c-0.941,0-1.637-0.129-2.08-0.38c-0.447-0.252-0.773-0.64-0.985-1.151c-0.214-0.521-0.321-1.361-0.321-2.514V46.07h-1.394v-2.915
			h1.394v-1.899L152.574,39.211z"/>
		<path fill="#FFFFFF" d="M156.908,43.155h3.529v1.7c0.343-0.739,0.695-1.241,1.055-1.52c0.361-0.274,0.81-0.412,1.342-0.412
			c0.558,0,1.163,0.179,1.827,0.546l-1.17,2.832c-0.444-0.193-0.796-0.298-1.058-0.298c-0.493,0-0.874,0.222-1.146,0.647
			c-0.394,0.61-0.584,1.744-0.584,3.402v3.474h-3.795V43.155z"/>
		<path fill="#FFFFFF" d="M165.86,39.211h3.773v2.706h-3.773V39.211z M165.86,43.155h3.773v10.372h-3.773V43.155z"/>
		<path fill="#FFFFFF" d="M183.403,49.331h-7.57c0.068,0.633,0.23,1.113,0.493,1.426c0.362,0.45,0.839,0.673,1.427,0.673
			c0.374,0,0.723-0.095,1.058-0.292c0.203-0.126,0.423-0.344,0.657-0.658l3.724,0.363c-0.569,1.04-1.26,1.788-2.062,2.24
			c-0.804,0.453-1.96,0.678-3.462,0.678c-1.302,0-2.33-0.19-3.081-0.582c-0.749-0.386-1.365-0.998-1.853-1.84
			c-0.499-0.849-0.742-1.835-0.742-2.979c0-1.623,0.494-2.932,1.484-3.934c0.98-1.004,2.346-1.502,4.078-1.502
			c1.416,0,2.528,0.226,3.344,0.674c0.817,0.448,1.439,1.097,1.867,1.951c0.426,0.854,0.638,1.967,0.638,3.332V49.331z
			 M179.564,47.423c-0.075-0.768-0.269-1.314-0.59-1.641c-0.319-0.341-0.739-0.508-1.262-0.508c-0.598,0-1.077,0.252-1.433,0.752
			c-0.231,0.316-0.378,0.779-0.441,1.396H179.564z"/>
		<path fill="#FFFFFF" d="M184.889,50.649l3.746-0.371c0.156,0.469,0.371,0.804,0.65,1.008c0.278,0.198,0.649,0.3,1.112,0.3
			c0.51,0,0.899-0.111,1.178-0.342c0.217-0.169,0.328-0.382,0.328-0.632c0-0.289-0.143-0.509-0.426-0.664
			c-0.21-0.113-0.746-0.251-1.628-0.413c-1.309-0.235-2.22-0.465-2.733-0.666c-0.509-0.202-0.937-0.551-1.288-1.039
			c-0.348-0.489-0.521-1.043-0.521-1.666c0-0.683,0.186-1.278,0.563-1.767c0.38-0.496,0.898-0.869,1.558-1.111
			c0.663-0.243,1.553-0.362,2.666-0.362c1.172,0,2.04,0.092,2.601,0.282c0.559,0.191,1.027,0.479,1.403,0.873
			c0.373,0.402,0.683,0.938,0.935,1.616l-3.584,0.375c-0.093-0.335-0.25-0.579-0.463-0.739c-0.298-0.21-0.66-0.312-1.076-0.312
			c-0.429,0-0.74,0.086-0.937,0.241c-0.188,0.161-0.291,0.354-0.291,0.581c0,0.257,0.122,0.441,0.373,0.576
			c0.246,0.13,0.786,0.244,1.613,0.351c1.254,0.148,2.19,0.357,2.802,0.624c0.609,0.264,1.079,0.648,1.409,1.144
			c0.32,0.494,0.483,1.039,0.483,1.632s-0.169,1.174-0.514,1.741c-0.345,0.564-0.888,1.015-1.631,1.352
			c-0.734,0.336-1.738,0.5-3.017,0.5c-1.796,0-3.083-0.27-3.841-0.809C185.596,52.413,185.109,51.643,184.889,50.649z"/>
		<path fill="#FFFFFF" d="M204.586,39.211h4.201v10.793h6.56v3.523h-10.761V39.211z"/>
		<path fill="#FFFFFF" d="M217.566,39.211h3.774v2.706h-3.774V39.211z M217.566,43.155h3.774v10.372h-3.774V43.155z"/>
		<path fill="#FFFFFF" d="M224.197,43.155h3.528v1.514c0.507-0.628,1.021-1.074,1.535-1.345c0.515-0.272,1.137-0.4,1.871-0.4
			c0.788,0,1.414,0.143,1.868,0.437c0.461,0.29,0.834,0.728,1.126,1.309c0.596-0.675,1.132-1.141,1.619-1.381
			c0.49-0.245,1.089-0.364,1.805-0.364c1.062,0,1.883,0.33,2.478,0.99c0.593,0.661,0.887,1.694,0.887,3.096v6.518h-3.782V47.62
			c0-0.471-0.09-0.819-0.263-1.044c-0.248-0.356-0.566-0.537-0.941-0.537c-0.444,0-0.8,0.169-1.072,0.509
			c-0.275,0.334-0.405,0.882-0.405,1.629v5.351h-3.788v-5.709c0-0.458-0.021-0.771-0.066-0.931c-0.087-0.257-0.226-0.47-0.424-0.628
			c-0.199-0.158-0.435-0.244-0.698-0.244c-0.437,0-0.79,0.175-1.069,0.519c-0.282,0.344-0.419,0.915-0.419,1.702v5.291h-3.788
			V43.155z"/>
		<path fill="#FFFFFF" d="M243.729,39.211h3.774v2.706h-3.774V39.211z M243.729,43.155h3.774v10.372h-3.774V43.155z"/>
		<path fill="#FFFFFF" d="M254.89,39.211v3.944h2.08v2.915h-2.08v3.671c0,0.444,0.043,0.738,0.115,0.877
			c0.127,0.223,0.343,0.333,0.654,0.333c0.28,0,0.666-0.087,1.172-0.256l0.274,2.745c-0.931,0.215-1.806,0.32-2.616,0.32
			c-0.934,0-1.636-0.129-2.078-0.38c-0.449-0.252-0.773-0.64-0.988-1.151c-0.209-0.521-0.32-1.361-0.32-2.514V46.07h-1.391v-2.915
			h1.391v-1.899L254.89,39.211z"/>
		<path fill="#FFFFFF" d="M270.118,49.331h-7.564c0.073,0.633,0.228,1.113,0.487,1.426c0.365,0.45,0.842,0.673,1.435,0.673
			c0.369,0,0.721-0.095,1.057-0.292c0.201-0.126,0.42-0.344,0.657-0.658l3.721,0.363c-0.572,1.04-1.249,1.788-2.058,2.24
			c-0.806,0.453-1.96,0.678-3.46,0.678c-1.306,0-2.336-0.19-3.083-0.582c-0.746-0.386-1.369-0.998-1.858-1.84
			c-0.498-0.849-0.739-1.835-0.739-2.979c0-1.623,0.496-2.932,1.479-3.934c0.984-1.004,2.352-1.502,4.084-1.502
			c1.414,0,2.529,0.226,3.345,0.674s1.432,1.097,1.863,1.951c0.428,0.854,0.636,1.967,0.636,3.332V49.331z M266.283,47.423
			c-0.075-0.768-0.269-1.314-0.59-1.641c-0.314-0.341-0.738-0.508-1.256-0.508c-0.604,0-1.082,0.252-1.44,0.752
			c-0.229,0.316-0.368,0.779-0.435,1.396H266.283z"/>
		<path fill="#FFFFFF" d="M282.652,39.211v14.316h-3.54v-1.531c-0.493,0.647-0.945,1.092-1.354,1.317
			c-0.542,0.298-1.149,0.447-1.813,0.447c-1.347,0-2.368-0.539-3.075-1.609c-0.71-1.076-1.067-2.382-1.067-3.915
			c0-1.717,0.392-3.032,1.173-3.942c0.782-0.916,1.78-1.37,2.986-1.37c0.587,0,1.113,0.102,1.598,0.313
			c0.482,0.206,0.904,0.523,1.271,0.938v-4.963H282.652z M278.861,48.316c0-0.817-0.158-1.426-0.489-1.821
			c-0.328-0.403-0.744-0.602-1.244-0.602c-0.437,0-0.81,0.191-1.106,0.574c-0.294,0.384-0.443,1.029-0.443,1.935
			c0,0.844,0.156,1.472,0.462,1.861c0.301,0.392,0.689,0.59,1.132,0.59c0.486,0,0.885-0.198,1.207-0.594
			C278.706,49.86,278.861,49.215,278.861,48.316z"/>
	</g>
</g>
</svg>
